HIERARCHY
ROOT Hips
{
	OFFSET -0.001795 -0.223333 0.028219
	CHANNELS 6 Xposition Yposition Zposition Zrotation Yrotation Xrotation 
	JOINT LeftUpLeg
	{
		OFFSET 0.069520 -0.091406 -0.006815
		CHANNELS 3 Zrotation Yrotation Xrotation
		JOINT LeftLeg
		{
			OFFSET 0.034277 -0.375199 -0.004496
			CHANNELS 3 Zrotation Yrotation Xrotation
			JOINT LeftFoot
			{
				OFFSET -0.013596 -0.397961 -0.043693
				CHANNELS 3 Zrotation Yrotation Xrotation
				JOINT LeftToe
				{
					OFFSET 0.026358 -0.055791 0.119288
					CHANNELS 3 Zrotation Yrotation Xrotation
					End Site
					{
						OFFSET 0.000000 0.000000 0.000000
					}
				}
			}
		}
	}
	JOINT RightUpLeg
	{
		OFFSET -0.067670 -0.090522 -0.004320
		CHANNELS 3 Zrotation Yrotation Xrotation
		JOINT RightLeg
		{
			OFFSET -0.038290 -0.382569 -0.008850
			CHANNELS 3 Zrotation Yrotation Xrotation
			JOINT RightFoot
			{
				OFFSET 0.015774 -0.398415 -0.042312
				CHANNELS 3 Zrotation Yrotation Xrotation
				JOINT RightToe
				{
					OFFSET -0.025372 -0.048144 0.123348
					CHANNELS 3 Zrotation Yrotation Xrotation
					End Site
					{
						OFFSET 0.000000 0.000000 0.000000
					}
				}
			}
		}
	}
	JOINT Spine
	{
		OFFSET -0.002533 0.108963 -0.026696
		CHANNELS 3 Zrotation Yrotation Xrotation
		JOINT Spine1
		{
			OFFSET 0.005487 0.135180 0.001092
			CHANNELS 3 Zrotation Yrotation Xrotation
			JOINT Spine2
			{
				OFFSET 0.001457 0.052922 0.025425
				CHANNELS 3 Zrotation Yrotation Xrotation
				JOINT Neck
				{
					OFFSET -0.002778 0.213870 -0.042857
					CHANNELS 3 Zrotation Yrotation Xrotation
					JOINT Head
					{
						OFFSET 0.005152 0.064970 0.051349
						CHANNELS 3 Zrotation Yrotation Xrotation
						End Site
						{
							OFFSET 0.000000 0.000000 0.000000
						}
					}
				}
				JOINT LeftShoulder
				{
					OFFSET 0.078845 0.121749 -0.034090
					CHANNELS 3 Zrotation Yrotation Xrotation
					JOINT LeftArm
					{
						OFFSET 0.090977 0.030469 -0.008868
						CHANNELS 3 Zrotation Yrotation Xrotation
						JOINT LeftForeArm
						{
							OFFSET 0.259612 -0.012772 -0.027456
							CHANNELS 3 Zrotation Yrotation Xrotation
							JOINT LeftHand
							{
								OFFSET 0.249234 0.008986 -0.001171
								CHANNELS 3 Zrotation Yrotation Xrotation
								End Site
								{
									OFFSET 0.000000 0.000000 0.000000
								}
							}
						}
					}
				}
				JOINT RightShoulder
				{
					OFFSET -0.081759 0.118833 -0.038615
					CHANNELS 3 Zrotation Yrotation Xrotation
					JOINT RightArm
					{
						OFFSET -0.096012 0.032551 -0.009143
						CHANNELS 3 Zrotation Yrotation Xrotation
						JOINT RightForeArm
						{
							OFFSET -0.253742 -0.013329 -0.021401
							CHANNELS 3 Zrotation Yrotation Xrotation
							JOINT RightHand
							{
								OFFSET -0.255298 0.007772 -0.005559
								CHANNELS 3 Zrotation Yrotation Xrotation
								End Site
								{
									OFFSET 0.000000 0.000000 0.000000
								}
							}
						}
					}
				}
			}
		}
	}
}
MOTION
Frames: 13
Frame Time: 0.05000000
0.000000 0.843180 0.000000 3.638001 1.452626 16.067817 -4.334693 -4.226453 -37.594845 -6.094029 1.049637 32.636992 8.342415 13.122569 -31.335436 0.000000 0.000000 0.000000 -13.313904 0.645089 -39.039804 9.839830 -10.054068 83.552878 -3.416429 -8.196383 -3.247887 0.000000 0.000000 0.000000 -6.557342 0.610203 -16.267996 2.202820 -0.070662 -18.762598 -2.653435 -5.958982 37.740430 1.788664 0.809278 -36.525601 0.000000 0.000000 0.000000 14.947789 10.917763 -2.580690 -83.645959 -5.660647 -3.484381 -18.673459 -26.430987 6.153299 0.000000 0.000000 0.000000 -20.995905 -4.148198 0.785106 87.803372 11.530406 -1.877774 16.423595 32.515652 6.316500 0.000000 0.000000 0.000000 
0.280476 0.862573 1.405841 3.117435 4.284493 12.237631 -4.431027 -2.617219 -24.119901 -6.167908 0.840592 25.298244 8.915722 11.385266 -35.108503 0.000000 0.000000 0.000000 -11.958568 0.284670 -44.737893 11.934947 -11.193681 77.276826 -6.186178 -14.770738 -10.786792 0.000000 0.000000 0.000000 -5.838762 0.526135 -9.878206 2.048713 0.019662 -19.710502 -4.003735 -9.988210 36.644137 0.714825 0.731452 -35.988485 0.000000 0.000000 0.000000 13.832296 9.532443 -2.883345 -82.579604 -10.942963 2.360575 -13.384177 -30.836634 5.869390 0.000000 0.000000 0.000000 -18.710721 -3.095045 1.389864 85.410846 10.247727 -5.693579 16.791211 29.787004 5.608248 0.000000 0.000000 0.000000 
0.536775 0.865873 2.834073 1.944509 6.052434 13.053647 -3.947153 -1.149348 -13.579653 -4.237236 0.267991 15.474427 8.772980 4.452255 -37.917432 0.000000 0.000000 0.000000 -11.735313 -0.245192 -53.649065 15.429567 -12.084342 64.897058 -7.887495 -21.511295 -12.874953 0.000000 0.000000 0.000000 -4.724022 0.543507 -12.098333 2.365380 -0.059384 -19.580478 -5.126241 -12.062390 37.649632 0.480567 0.648069 -36.165819 0.000000 0.000000 0.000000 17.627988 7.611148 -2.488469 -84.520546 -14.529745 7.249489 -9.306611 -37.106203 5.794239 0.000000 0.000000 0.000000 -21.061106 -4.108954 1.768371 85.599418 5.577079 -10.538672 19.640326 28.897097 6.109993 0.000000 0.000000 0.000000 
0.743194 0.862553 4.273708 1.252772 8.459052 13.285640 -2.630512 -0.231875 -5.291495 -2.467327 0.064773 6.756477 8.657632 1.389786 -37.482038 0.000000 0.000000 0.000000 -12.161927 -1.143777 -58.159506 15.407062 -8.694113 47.281519 -7.224854 -20.440990 -14.649199 0.000000 0.000000 0.000000 -3.995627 0.559022 -12.496985 3.129609 -0.229985 -20.040180 -6.253442 -15.163817 37.950535 0.343413 0.349631 -35.577343 0.000000 0.000000 0.000000 17.900445 7.367070 -2.785754 -83.455398 -17.867798 11.280001 -6.091961 -40.875662 5.386938 0.000000 0.000000 0.000000 -21.411494 -4.504873 2.150324 84.017958 2.480133 -14.203786 21.951263 25.965902 5.839670 0.000000 0.000000 0.000000 
0.905565 0.850057 5.793151 1.149685 10.399126 13.141400 -0.146489 0.232677 4.002322 -3.411085 0.199595 -0.292070 8.369545 -3.430496 -39.102770 0.000000 0.000000 0.000000 -12.524630 -1.571279 -57.130238 14.682875 -4.828266 25.825478 -6.701284 -19.929212 -17.095700 0.000000 0.000000 0.000000 -3.104935 0.556601 -12.561948 2.957065 -0.180679 -19.798020 -7.085443 -17.485859 38.172320 -0.062288 0.314596 -36.059483 0.000000 0.000000 0.000000 18.006635 7.011464 -3.008101 -82.927425 -20.891340 14.761943 -1.707438 -43.552945 4.199166 0.000000 0.000000 0.000000 -21.310605 -5.890151 2.219501 84.042992 0.185256 -17.134692 20.765790 24.787391 5.213903 0.000000 0.000000 0.000000 
1.057860 0.829996 7.383089 2.230990 13.632286 12.938318 1.537549 0.163112 11.083616 -4.786643 0.219796 -2.944998 8.533452 -5.080773 -39.924924 0.000000 0.000000 0.000000 -13.265183 -2.469995 -56.566971 11.585746 -2.652470 15.002243 -7.041289 -22.079315 -16.702389 0.000000 0.000000 0.000000 -3.304066 0.539174 -11.718169 3.225566 -0.224475 -19.856587 -8.035016 -20.111557 38.243371 0.809749 -0.314375 -35.466659 0.000000 0.000000 0.000000 18.408203 7.198503 -3.258959 -84.303265 -23.589013 18.563922 2.819589 -44.085088 2.464694 0.000000 0.000000 0.000000 -21.259804 -6.990173 2.244904 83.785801 -3.254507 -20.514398 20.364308 25.281663 5.148549 0.000000 0.000000 0.000000 
1.203490 0.808523 9.098329 2.663492 15.927299 13.398031 4.061970 -0.571492 15.987013 -5.219622 0.254123 -1.412311 9.213218 -5.211810 -42.762225 0.000000 0.000000 0.000000 -14.722774 -4.039877 -59.304566 12.009742 -3.444996 20.264418 -7.569958 -23.071505 -12.853835 0.000000 0.000000 0.000000 -3.207536 0.556617 -12.280786 3.273061 -0.212292 -20.045302 -8.722016 -21.634652 38.052019 1.159329 -0.545963 -35.264025 0.000000 0.000000 0.000000 19.159086 5.995384 -3.122409 -86.536271 -24.053928 20.452929 6.737870 -45.124974 0.929700 0.000000 0.000000 0.000000 -21.369994 -7.534557 2.273429 82.950660 -6.553133 -22.959894 20.211347 23.118140 4.568579 0.000000 0.000000 0.000000 
1.312597 0.797581 10.996864 2.123786 17.204189 14.472736 7.104816 -1.732297 18.248925 -5.966793 0.415429 3.410602 8.897979 -6.427245 -42.819447 0.000000 0.000000 0.000000 -13.620166 -4.356043 -63.767364 12.324835 -5.444928 33.283389 -6.844941 -18.551210 -2.615632 0.000000 0.000000 0.000000 -2.580690 0.616021 -14.551362 3.646879 -0.311522 -19.847560 -9.238927 -22.873095 38.710433 1.103303 -0.599856 -35.610852 0.000000 0.000000 0.000000 17.118821 6.202624 -3.253052 -85.216147 -21.576271 17.703066 3.446368 -47.435958 2.683109 0.000000 0.000000 0.000000 -20.007131 -6.598124 2.272657 80.750160 -6.220443 -22.051538 19.763524 21.640811 4.102745 0.000000 0.000000 0.000000 
1.371486 0.798873 12.973993 1.463063 16.545653 15.023302 9.565973 -2.370621 15.774471 -6.877937 0.839947 15.729359 6.021956 -9.045099 -34.311279 0.000000 0.000000 0.000000 -11.940152 -3.620430 -66.755550 13.161970 -8.115087 46.304516 -6.282146 -16.675267 3.572959 0.000000 0.000000 0.000000 -1.569716 0.675512 -16.439636 4.275832 -0.502174 -19.627749 -9.050363 -22.900666 38.859116 1.121925 -0.632796 -35.874344 0.000000 0.000000 0.000000 16.299378 7.376962 -3.573076 -85.538305 -17.477636 14.375328 -3.366662 -45.911614 5.409354 0.000000 0.000000 0.000000 -19.883215 -5.927248 2.457303 80.741693 -4.406013 -20.888305 18.174915 20.352058 3.581961 0.000000 0.000000 0.000000 
1.367333 0.804338 14.824443 0.692783 16.581674 14.081838 11.869181 -2.336138 6.534615 -8.324828 1.553989 39.960882 1.469649 -7.722475 -16.572561 0.000000 0.000000 0.000000 -9.857182 -1.946527 -63.132782 14.333261 -9.821862 50.369849 -7.247612 -19.089229 -1.499807 0.000000 0.000000 0.000000 -0.731039 0.672031 -15.962549 4.671499 -0.609657 -19.769435 -8.294242 -23.017063 38.673552 1.309876 -0.799168 -35.403956 0.000000 0.000000 0.000000 15.773558 8.414885 -3.830662 -85.624120 -13.321043 10.682050 -10.479156 -41.241281 7.322847 0.000000 0.000000 0.000000 -21.029838 -3.970757 3.032416 82.076042 -0.114126 -18.422688 15.750462 19.521922 3.089786 0.000000 0.000000 0.000000 
1.366413 0.819616 16.448975 0.647969 14.825876 9.236617 11.469733 -1.303829 -2.512107 -10.587819 2.670148 64.229583 1.717053 1.369284 -4.881917 0.000000 0.000000 0.000000 -6.817791 0.485938 -52.270891 13.403943 -8.976397 50.461046 -7.368116 -19.591058 -12.389739 0.000000 0.000000 0.000000 -0.805698 0.421051 -9.314450 4.360217 -0.525806 -20.234920 -5.938921 -19.135140 37.667740 1.758147 -0.560863 -35.462521 0.000000 0.000000 0.000000 15.800333 8.696038 -3.376321 -85.159252 -11.386421 6.554187 -15.944236 -36.394812 7.989418 0.000000 0.000000 0.000000 -21.390106 -2.048785 2.818736 84.596914 3.490380 -14.762433 14.753723 21.830328 3.425415 0.000000 0.000000 0.000000 
1.419512 0.837337 17.934847 0.762753 13.225709 5.521222 8.704068 -0.809699 -12.324085 -13.341294 5.299728 80.443534 5.183638 10.867268 -1.686515 0.000000 0.000000 0.000000 -3.974242 1.819834 -38.912759 11.271795 -6.631597 45.848699 -6.590920 -16.355376 -24.733109 0.000000 0.000000 0.000000 -1.415061 0.196891 -3.764574 3.995674 -0.453993 -20.145351 -3.367877 -14.189742 36.823620 2.077369 -0.102161 -35.446861 0.000000 0.000000 0.000000 16.869624 9.405337 -2.758703 -85.885273 -8.996357 1.681503 -19.623957 -30.792773 7.528474 0.000000 0.000000 0.000000 -21.970454 -0.331443 2.340618 86.187255 8.711607 -8.141554 12.179732 26.551867 3.824398 0.000000 0.000000 0.000000 
1.533481 0.853708 19.383255 1.406263 10.812021 6.188891 8.917761 -1.134284 -26.362504 -17.142275 11.307262 85.848098 7.257818 15.466381 -1.634071 0.000000 0.000000 0.000000 -2.264160 2.181393 -29.722674 9.210737 -4.300059 39.572216 -6.198486 -12.541534 -32.992649 0.000000 0.000000 0.000000 -2.332727 0.227907 -3.977387 3.348316 -0.295129 -20.088980 -1.007185 -8.979381 36.630041 2.487194 0.306456 -34.764973 0.000000 0.000000 0.000000 16.482963 10.948528 -2.317735 -85.564042 -4.380473 -5.296973 -22.897270 -25.079956 6.757536 0.000000 0.000000 0.000000 -22.569354 0.386425 1.562815 85.797544 12.413538 -1.764323 11.000418 33.406461 4.788462 0.000000 0.000000 0.000000 
